<?xml version="1.0" encoding="iso-8859-1"?>
<!-- Uploaded to: SVG Repo, www.svgrepo.com, Generator: SVG Repo Mixer Tools -->
<svg height="800px" width="800px" version="1.1" id="Layer_1" xmlns="http://www.w3.org/2000/svg" xmlns:xlink="http://www.w3.org/1999/xlink" 
	 viewBox="0 0 501.234 501.234" xml:space="preserve">
<path style="fill:#E2E2E2;" d="M499.461,498.304H2.09C1.045,489.945,0,482.631,0,475.317c0-44.931,20.898-73.143,52.245-95.086
	c24.033-17.763,54.335-32.392,84.637-48.065c3.135-1.045,6.269-3.135,8.359-4.18c2.09-1.045,4.18-2.09,6.269-3.135
	c4.18-2.09,7.314-4.18,11.494-6.269c4.18-2.09,7.314-4.18,11.494-7.314l76.278,81.502l76.278-81.502
	c4.18,2.09,7.314,4.18,11.494,7.314c4.18,2.09,7.314,4.18,11.494,6.269c2.09,1.045,4.18,2.09,6.269,3.135
	c3.135,2.09,6.269,3.135,8.359,4.18c30.302,16.718,60.604,30.302,84.637,49.11C485.878,407.398,507.82,440.835,499.461,498.304z"/>
<g>
	<path style="fill:#F8B64C;" d="M327.053,334.255L327.053,334.255L327.053,334.255z"/>
	<path style="fill:#F8B64C;" d="M317.649,289.325c-15.673,20.898-35.527,35.527-57.469,38.661c-3.135,1.045-6.269,1.045-9.404,1.045
		l0,0l0,0l0,0c-3.135,0-6.269,0-9.404-1.045c-21.943-3.135-40.751-17.763-57.469-38.661c-6.269,20.898-9.404,20.898-9.404,20.898
		l76.278,81.502l76.278-81.502C327.053,310.223,322.873,310.223,317.649,289.325z"/>
	
		<ellipse transform="matrix(-0.1448 -0.9895 0.9895 -0.1448 -16.9618 350.9521)" style="fill:#F8B64C;" cx="143.186" cy="182.806" rx="38.663" ry="20.899"/>
	
		<ellipse transform="matrix(-0.9895 -0.1448 0.1448 -0.9895 686.3438 414.4565)" style="fill:#F8B64C;" cx="358.254" cy="182.252" rx="20.899" ry="38.663"/>
</g>
<path style="fill:#FFD15C;" d="M364.669,151.398c0,79.412-51.2,177.633-113.894,177.633s-113.894-98.22-113.894-177.633
	S188.082,7.202,250.776,7.202S364.669,71.986,364.669,151.398z"/>
<path style="fill:#334A5E;" d="M359.445,65.717C334.367-2.202,251.82,3.023,251.82,3.023s-83.592-5.224-107.624,62.694
	c0,0-15.673,52.245-6.269,98.22h14.629c0,0-6.269-77.322,19.853-104.49c0,0,15.673,25.078,80.457,27.167
	c65.829-2.09,80.457-27.167,80.457-27.167c25.078,27.167,19.853,104.49,19.853,104.49h14.629
	C375.118,117.961,359.445,65.717,359.445,65.717z"/>
<path style="fill:#314A5E;" d="M449.306,380.231c-17.763,28.212-38.661,68.963-41.796,118.073H94.041
	c-3.135-49.11-24.033-89.861-41.796-118.073c24.033-17.763,54.335-32.392,84.637-48.065c3.135-1.045,6.269-3.135,8.359-4.18
	c2.09-1.045,4.18-2.09,6.269-3.135l99.265,125.388l99.265-125.388c2.09,1.045,4.18,2.09,6.269,3.135
	c3.135,2.09,6.269,3.135,8.359,4.18C394.971,347.839,425.273,362.468,449.306,380.231z"/>
<g>
	<path style="fill:#FF7058;" d="M243.461,397.994c0,0-37.616,17.763-47.02,10.449c-7.314-6.269-7.314-33.437,0-38.661
		c9.404-7.314,47.02,10.449,47.02,10.449V397.994z"/>
	<path style="fill:#FF7058;" d="M258.09,397.994c0,0,37.616,17.763,47.02,10.449c7.314-6.269,7.314-33.437,0-38.661
		c-9.404-7.314-47.02,10.449-47.02,10.449V397.994z"/>
</g>
<circle style="fill:#84DBFF;" cx="250.776" cy="388.59" r="14.629"/>
</svg>